<?xml version="1.0" encoding="UTF-8"?>
<!DOCTYPE svg PUBLIC "-//W3C//DTD SVG 1.1//EN" "http://www.w3.org/Graphics/SVG/1.1/DTD/svg11.dtd">
<!-- Creator: CorelDRAW 2020 (64-Bit) -->
<svg xmlns="http://www.w3.org/2000/svg" xml:space="preserve" width="7.89557in" height="0.86089in" version="1.1" style="shape-rendering:geometricPrecision; text-rendering:geometricPrecision; image-rendering:optimizeQuality; fill-rule:evenodd; clip-rule:evenodd"
viewBox="0 0 524.75 57.22"
 xmlns:xlink="http://www.w3.org/1999/xlink"
 xmlns:xodm="http://www.corel.com/coreldraw/odm/2003">
 <defs>
  <style type="text/css">
   <![CDATA[
    .str0 {stroke:#B4C99A;stroke-width:0.2;stroke-miterlimit:2.61313}
    .fil0 {fill:none}
    .fil3 {fill:none;fill-rule:nonzero}
    .fil1 {fill:#B4C99A}
    .fil4 {fill:#F1F1F2;fill-rule:nonzero}
    .fil5 {fill:#606062;fill-rule:nonzero}
    .fil2 {fill:#121D23;fill-rule:nonzero}
   ]]>
  </style>
 </defs>
 <g id="Layer_x0020_1">
  <metadata id="CorelCorpID_0Corel-Layer"/>
  <rect class="fil0" x="-0" width="524.75" height="57.22"/>
  <g id="_988935313440">
   <path class="fil1" d="M366.07 30.03l5.36 0c1.29,0 2.34,1.05 2.34,2.34l0 5.36c0,1.29 -1.05,2.34 -2.34,2.34l-5.36 0c-1.29,0 -2.34,-1.05 -2.34,-2.34l0 -5.36c0,-1.29 1.05,-2.34 2.34,-2.34zm5.1 2.56l-4.83 0c-0.51,0 -0.93,0.42 -0.93,0.93l0 3.06c0,0.51 0.42,0.93 0.93,0.93l4.83 0c0.51,0 0.93,-0.42 0.93,-0.93l0 -3.06c0,-0.51 -0.42,-0.93 -0.93,-0.93zm-3.43 3.32l-1.3 1.11c-0.09,0.08 -0.23,0.07 -0.31,-0.02 -0.08,-0.09 -0.07,-0.23 0.02,-0.31l1.3 -1.11c0.09,-0.08 0.23,-0.07 0.31,0.02 0.08,0.09 0.07,0.23 -0.02,0.31zm1.02 -0.42c-0.17,-0 -0.34,-0.06 -0.47,-0.17l0 0 -0 0 0 0 -0 0 0 -0 -2 -1.73c-0.09,-0.08 -0.1,-0.22 -0.02,-0.31 0.08,-0.09 0.22,-0.1 0.31,-0.02l2 1.73c0.04,0.04 0.11,0.07 0.19,0.06 0.07,0 0.14,-0.03 0.19,-0.07l0 -0 1.99 -1.73c0.09,-0.08 0.23,-0.07 0.31,0.02 0.08,0.09 0.07,0.23 -0.02,0.31l-2 1.73c-0.13,0.11 -0.3,0.17 -0.47,0.17zm2.63 1.51c-0.08,0.09 -0.22,0.1 -0.31,0.02l-1.3 -1.11c-0.09,-0.08 -0.1,-0.22 -0.02,-0.31 0.08,-0.09 0.22,-0.1 0.31,-0.02l1.3 1.11c0.09,0.08 0.1,0.22 0.02,0.31z"/>
   <path class="fil2" d="M406.12 21.92c0,-1.04 0.1,-1.91 0.29,-2.61 0.2,-0.7 0.49,-1.25 0.87,-1.66 0.38,-0.41 0.83,-0.7 1.35,-0.87 0.52,-0.18 1.1,-0.26 1.74,-0.26 0.65,0 1.24,0.09 1.76,0.26 0.53,0.18 0.98,0.47 1.35,0.88 0.37,0.41 0.66,0.96 0.85,1.66 0.2,0.69 0.29,1.56 0.29,2.6 0,1.03 -0.1,1.9 -0.31,2.59 -0.21,0.7 -0.5,1.25 -0.87,1.66 -0.38,0.41 -0.83,0.7 -1.35,0.88 -0.52,0.18 -1.1,0.27 -1.73,0.27 -0.64,0 -1.22,-0.09 -1.74,-0.26 -0.52,-0.18 -0.97,-0.47 -1.35,-0.88 -0.38,-0.41 -0.67,-0.97 -0.87,-1.66 -0.2,-0.7 -0.3,-1.56 -0.3,-2.59zm2.03 0.06c0,0.77 0.06,1.41 0.17,1.9 0.11,0.5 0.27,0.88 0.47,1.15 0.2,0.27 0.44,0.45 0.7,0.56 0.27,0.1 0.56,0.15 0.88,0.15 0.31,0 0.6,-0.05 0.87,-0.15 0.27,-0.1 0.5,-0.29 0.7,-0.56 0.2,-0.27 0.36,-0.65 0.47,-1.15 0.11,-0.5 0.17,-1.13 0.17,-1.9 0,-0.82 -0.06,-1.48 -0.17,-1.99 -0.11,-0.51 -0.27,-0.91 -0.48,-1.18 -0.21,-0.28 -0.44,-0.47 -0.7,-0.57 -0.26,-0.1 -0.55,-0.15 -0.86,-0.15 -0.32,0 -0.61,0.05 -0.87,0.15 -0.26,0.1 -0.5,0.29 -0.7,0.57 -0.21,0.28 -0.37,0.67 -0.48,1.18 -0.11,0.51 -0.17,1.17 -0.17,1.99zm11.19 5.34c-0.42,0 -0.83,-0.02 -1.23,-0.07 -0.4,-0.05 -0.78,-0.11 -1.14,-0.2 -0.36,-0.09 -0.68,-0.19 -0.94,-0.32l0.46 -1.56c0.3,0.09 0.59,0.18 0.87,0.25 0.28,0.07 0.56,0.12 0.84,0.15 0.28,0.03 0.57,0.05 0.86,0.05 0.74,0 1.33,-0.14 1.76,-0.41 0.43,-0.27 0.74,-0.69 0.92,-1.25 0.14,-0.43 0.23,-0.94 0.26,-1.53 -0.18,0.14 -0.39,0.26 -0.61,0.37 -0.34,0.16 -0.69,0.28 -1.08,0.36 -0.38,0.08 -0.77,0.12 -1.16,0.12 -0.72,0 -1.33,-0.12 -1.84,-0.37 -0.5,-0.25 -0.88,-0.61 -1.14,-1.09 -0.26,-0.48 -0.39,-1.06 -0.39,-1.74 0,-0.77 0.15,-1.42 0.46,-1.95 0.31,-0.53 0.77,-0.93 1.39,-1.2 0.62,-0.27 1.37,-0.41 2.25,-0.41 0.95,0 1.73,0.18 2.35,0.54 0.62,0.36 1.08,0.92 1.39,1.69 0.3,0.76 0.46,1.74 0.46,2.93 0,1.27 -0.18,2.32 -0.53,3.16 -0.36,0.84 -0.88,1.46 -1.59,1.87 -0.7,0.41 -1.58,0.62 -2.63,0.62zm2.65 -6.4c-0.02,-0.32 -0.06,-0.6 -0.11,-0.86 -0.09,-0.48 -0.23,-0.86 -0.41,-1.15 -0.18,-0.28 -0.41,-0.49 -0.69,-0.62 -0.28,-0.13 -0.61,-0.19 -0.99,-0.19 -0.4,0 -0.76,0.07 -1.08,0.22 -0.31,0.15 -0.56,0.36 -0.73,0.64 -0.17,0.27 -0.26,0.62 -0.26,1.05 0,0.37 0.08,0.69 0.25,0.95 0.17,0.26 0.4,0.46 0.71,0.6 0.31,0.13 0.66,0.2 1.05,0.2 0.3,0 0.6,-0.04 0.9,-0.12 0.3,-0.08 0.59,-0.21 0.87,-0.37 0.17,-0.1 0.33,-0.21 0.48,-0.34zm4.18 6.24l0 -1.63 3.02 0 0 -6.66 -2.8 1.25 -0.43 -1.7 4.24 -1.81 1.02 0 0 8.92 2.55 0 0 1.63 -7.6 0zm8.9 -5.25c0,-1.04 0.1,-1.91 0.29,-2.61 0.2,-0.7 0.49,-1.25 0.87,-1.66 0.38,-0.41 0.83,-0.7 1.35,-0.87 0.52,-0.18 1.1,-0.26 1.74,-0.26 0.65,0 1.24,0.09 1.76,0.26 0.53,0.18 0.98,0.47 1.35,0.88 0.37,0.41 0.66,0.96 0.85,1.66 0.2,0.69 0.29,1.56 0.29,2.6 0,1.03 -0.1,1.9 -0.31,2.59 -0.21,0.7 -0.5,1.25 -0.87,1.66 -0.38,0.41 -0.83,0.7 -1.35,0.88 -0.52,0.18 -1.1,0.27 -1.73,0.27 -0.64,0 -1.22,-0.09 -1.74,-0.26 -0.52,-0.18 -0.97,-0.47 -1.35,-0.88 -0.38,-0.41 -0.67,-0.97 -0.87,-1.66 -0.2,-0.7 -0.3,-1.56 -0.3,-2.59zm2.03 0.06c0,0.77 0.06,1.41 0.17,1.9 0.11,0.5 0.27,0.88 0.47,1.15 0.2,0.27 0.44,0.45 0.7,0.56 0.27,0.1 0.56,0.15 0.88,0.15 0.31,0 0.6,-0.05 0.87,-0.15 0.27,-0.1 0.5,-0.29 0.7,-0.56 0.2,-0.27 0.36,-0.65 0.47,-1.15 0.11,-0.5 0.17,-1.13 0.17,-1.9 0,-0.82 -0.06,-1.48 -0.17,-1.99 -0.11,-0.51 -0.27,-0.91 -0.48,-1.18 -0.21,-0.28 -0.44,-0.47 -0.7,-0.57 -0.26,-0.1 -0.55,-0.15 -0.86,-0.15 -0.32,0 -0.61,0.05 -0.87,0.15 -0.26,0.1 -0.5,0.29 -0.7,0.57 -0.21,0.28 -0.37,0.67 -0.48,1.18 -0.11,0.51 -0.17,1.17 -0.17,1.99zm9.94 1.52l0 -1.86 3.3 0 0 1.86 -3.3 0zm7.49 3.67l0 -1.63 3.02 0 0 -6.66 -2.8 1.25 -0.43 -1.7 4.24 -1.81 1.02 0 0 8.92 2.55 0 0 1.63 -7.6 0zm9.55 -2.15c0.27,0.1 0.54,0.2 0.82,0.29 0.28,0.09 0.59,0.15 0.92,0.2 0.34,0.05 0.71,0.07 1.14,0.07 0.6,0 1.09,-0.07 1.46,-0.2 0.38,-0.13 0.66,-0.32 0.84,-0.56 0.18,-0.24 0.27,-0.54 0.27,-0.89 0,-0.26 -0.04,-0.48 -0.12,-0.67 -0.08,-0.19 -0.21,-0.35 -0.41,-0.48 -0.2,-0.13 -0.46,-0.22 -0.79,-0.28 -0.33,-0.06 -0.74,-0.09 -1.22,-0.09l-2.66 0 -0.14 -0.17 0.63 -5.57 6.21 0 0 1.75 -4.69 0 -0.26 2.46 1.81 0c0.82,0 1.5,0.11 2.04,0.32 0.55,0.21 0.96,0.53 1.24,0.97 0.28,0.43 0.42,1 0.42,1.69 0,0.78 -0.19,1.43 -0.57,1.95 -0.38,0.52 -0.91,0.9 -1.57,1.15 -0.67,0.25 -1.44,0.38 -2.33,0.38 -0.49,0 -0.93,-0.03 -1.32,-0.09 -0.4,-0.06 -0.78,-0.14 -1.15,-0.25 -0.37,-0.11 -0.74,-0.25 -1.11,-0.43l0.54 -1.55zm8.92 0.15l-0.03 -1.49 5.31 -7.08 1.78 0.05 0 6.94 1.56 0 0 1.58 -1.56 0 0 2 -2.11 0 0 -2 -4.95 0zm5.02 -1.58l0 -4.27 -3.27 4.27 3.27 0zm7.71 1.42c0.27,0.1 0.54,0.2 0.82,0.29 0.28,0.09 0.59,0.15 0.92,0.2 0.34,0.05 0.71,0.07 1.14,0.07 0.6,0 1.09,-0.07 1.46,-0.2 0.38,-0.13 0.66,-0.32 0.84,-0.56 0.18,-0.24 0.27,-0.54 0.27,-0.89 0,-0.26 -0.04,-0.48 -0.12,-0.67 -0.08,-0.19 -0.21,-0.35 -0.41,-0.48 -0.2,-0.13 -0.46,-0.22 -0.79,-0.28 -0.33,-0.06 -0.74,-0.09 -1.22,-0.09l-2.66 0 -0.14 -0.17 0.63 -5.57 6.21 0 0 1.75 -4.69 0 -0.26 2.46 1.81 0c0.82,0 1.5,0.11 2.04,0.32 0.55,0.21 0.96,0.53 1.24,0.97 0.28,0.43 0.42,1 0.42,1.69 0,0.78 -0.19,1.43 -0.57,1.95 -0.38,0.52 -0.91,0.9 -1.57,1.15 -0.67,0.25 -1.44,0.38 -2.33,0.38 -0.49,0 -0.93,-0.03 -1.32,-0.09 -0.4,-0.06 -0.78,-0.14 -1.15,-0.25 -0.37,-0.11 -0.74,-0.25 -1.11,-0.43l0.54 -1.55zm12.59 2.31c-0.42,0 -0.83,-0.02 -1.23,-0.07 -0.4,-0.05 -0.78,-0.11 -1.14,-0.2 -0.36,-0.09 -0.68,-0.19 -0.94,-0.32l0.46 -1.56c0.3,0.09 0.59,0.18 0.87,0.25 0.28,0.07 0.56,0.12 0.84,0.15 0.28,0.03 0.57,0.05 0.86,0.05 0.74,0 1.33,-0.14 1.76,-0.41 0.43,-0.27 0.74,-0.69 0.92,-1.25 0.14,-0.43 0.23,-0.94 0.26,-1.53 -0.18,0.14 -0.39,0.26 -0.61,0.37 -0.34,0.16 -0.69,0.28 -1.08,0.36 -0.38,0.08 -0.77,0.12 -1.16,0.12 -0.72,0 -1.33,-0.12 -1.83,-0.37 -0.5,-0.25 -0.88,-0.61 -1.14,-1.09 -0.26,-0.48 -0.39,-1.06 -0.39,-1.74 0,-0.77 0.15,-1.42 0.46,-1.95 0.31,-0.53 0.77,-0.93 1.39,-1.2 0.62,-0.27 1.37,-0.41 2.25,-0.41 0.95,0 1.73,0.18 2.35,0.54 0.62,0.36 1.08,0.92 1.39,1.69 0.3,0.76 0.46,1.74 0.46,2.93 0,1.27 -0.18,2.32 -0.53,3.16 -0.36,0.84 -0.89,1.46 -1.59,1.87 -0.7,0.41 -1.58,0.62 -2.63,0.62zm2.65 -6.4c-0.02,-0.32 -0.06,-0.6 -0.11,-0.86 -0.09,-0.48 -0.23,-0.86 -0.41,-1.15 -0.18,-0.28 -0.41,-0.49 -0.69,-0.62 -0.28,-0.13 -0.61,-0.19 -0.99,-0.19 -0.4,0 -0.76,0.07 -1.08,0.22 -0.31,0.15 -0.56,0.36 -0.73,0.64 -0.17,0.27 -0.26,0.62 -0.26,1.05 0,0.37 0.08,0.69 0.25,0.95 0.17,0.26 0.4,0.46 0.71,0.6 0.31,0.13 0.66,0.2 1.05,0.2 0.3,0 0.6,-0.04 0.9,-0.12 0.3,-0.08 0.59,-0.21 0.87,-0.37 0.17,-0.1 0.33,-0.21 0.48,-0.34zm6.41 4.09c0.27,0.1 0.54,0.2 0.82,0.29 0.28,0.09 0.59,0.15 0.92,0.2 0.34,0.05 0.71,0.07 1.14,0.07 0.6,0 1.09,-0.07 1.46,-0.2 0.38,-0.13 0.66,-0.32 0.84,-0.56 0.18,-0.24 0.27,-0.54 0.27,-0.89 0,-0.26 -0.04,-0.48 -0.12,-0.67 -0.08,-0.19 -0.21,-0.35 -0.41,-0.48 -0.2,-0.13 -0.46,-0.22 -0.79,-0.28 -0.33,-0.06 -0.74,-0.09 -1.22,-0.09l-2.66 0 -0.14 -0.17 0.63 -5.57 6.21 0 0 1.75 -4.69 0 -0.26 2.46 1.81 0c0.82,0 1.5,0.11 2.04,0.32 0.55,0.21 0.96,0.53 1.24,0.97 0.28,0.43 0.42,1 0.42,1.69 0,0.78 -0.19,1.43 -0.57,1.95 -0.38,0.52 -0.91,0.9 -1.57,1.15 -0.67,0.25 -1.44,0.38 -2.33,0.38 -0.49,0 -0.93,-0.03 -1.32,-0.09 -0.4,-0.06 -0.78,-0.14 -1.15,-0.25 -0.37,-0.11 -0.74,-0.25 -1.11,-0.43l0.54 -1.55zm13.35 2.31c-0.91,0 -1.68,-0.18 -2.32,-0.54 -0.64,-0.36 -1.13,-0.92 -1.46,-1.67 -0.33,-0.75 -0.5,-1.72 -0.5,-2.9 0,-1.28 0.18,-2.34 0.53,-3.18 0.36,-0.84 0.89,-1.47 1.59,-1.89 0.71,-0.42 1.59,-0.63 2.64,-0.63 0.42,0 0.83,0.02 1.23,0.05 0.4,0.04 0.77,0.1 1.12,0.19 0.35,0.09 0.67,0.19 0.94,0.3l-0.46 1.59c-0.31,-0.08 -0.6,-0.16 -0.87,-0.22 -0.27,-0.07 -0.54,-0.12 -0.83,-0.16 -0.28,-0.04 -0.58,-0.06 -0.87,-0.06 -0.73,0 -1.32,0.14 -1.75,0.42 -0.43,0.28 -0.74,0.7 -0.93,1.25 -0.15,0.44 -0.23,0.97 -0.27,1.59 0.18,-0.14 0.37,-0.27 0.6,-0.38 0.34,-0.17 0.7,-0.29 1.09,-0.39 0.39,-0.09 0.8,-0.14 1.22,-0.14 0.71,0 1.31,0.12 1.8,0.37 0.49,0.25 0.86,0.61 1.11,1.09 0.25,0.48 0.38,1.06 0.38,1.73 0,1.17 -0.34,2.05 -1.01,2.66 -0.68,0.61 -1.68,0.91 -3.01,0.91zm-2.16 -4.36c0.03,0.3 0.07,0.58 0.12,0.82 0.11,0.48 0.26,0.86 0.46,1.15 0.2,0.28 0.45,0.49 0.74,0.6 0.29,0.12 0.6,0.18 0.94,0.18 0.63,0 1.11,-0.16 1.46,-0.49 0.34,-0.33 0.51,-0.8 0.51,-1.42 0,-0.37 -0.08,-0.69 -0.25,-0.94 -0.17,-0.26 -0.4,-0.46 -0.7,-0.6 -0.3,-0.14 -0.66,-0.21 -1.07,-0.21 -0.3,0 -0.6,0.05 -0.89,0.14 -0.29,0.09 -0.57,0.22 -0.83,0.39 -0.18,0.12 -0.34,0.24 -0.5,0.37z"/>
   <g>
    <path class="fil3 str0" d="M365.95 16.27l5.6 0c1.56,0 2.84,1.28 2.84,2.84l0 5.6c0,1.56 -1.28,2.84 -2.84,2.84l-5.6 0c-1.56,0 -2.84,-1.28 -2.84,-2.84l0 -5.6c0,-1.56 1.28,-2.84 2.84,-2.84z"/>
   </g>
   <path class="fil1" d="M366.07 16.9l5.36 0c1.29,0 2.34,1.05 2.34,2.34l0 5.36c0,1.29 -1.05,2.34 -2.34,2.34l-5.36 0c-1.29,0 -2.34,-1.05 -2.34,-2.34l0 -5.36c0,-1.29 1.05,-2.34 2.34,-2.34zm1.15 6.44c-1.27,-1.26 -2.07,-2.87 -1.12,-3.82 0.06,-0.06 0.12,-0.11 0.17,-0.17 0.29,-0.28 0.57,-0.26 0.82,0.09l0.66 0.94c0.22,0.33 0.17,0.51 -0.07,0.77l-0.21 0.23c-0.08,0.07 -0.05,0.17 -0.01,0.23 0.1,0.18 0.37,0.51 0.67,0.81 0.31,0.31 0.62,0.57 0.81,0.67 0.07,0.04 0.17,0.05 0.24,-0.01l0.22 -0.21c0.25,-0.24 0.44,-0.3 0.76,-0.08 0.44,0.31 0.7,0.49 0.96,0.67 0.32,0.23 0.4,0.53 0.07,0.82 -0.06,0.06 -0.11,0.12 -0.16,0.17 -0.95,0.95 -2.56,0.14 -3.82,-1.12zm1.35 -4.39c0.72,0.09 1.39,0.4 1.93,0.9 0.54,0.5 0.91,1.13 1.06,1.85 0.02,0.1 -0.04,0.2 -0.14,0.22 -0.01,0 -0.02,0 -0.03,0 -0.09,0 -0.17,-0.06 -0.19,-0.15 -0.14,-0.64 -0.46,-1.21 -0.95,-1.65 -0.48,-0.44 -1.08,-0.72 -1.73,-0.8 -0.1,-0.01 -0.17,-0.11 -0.16,-0.21 0.01,-0.1 0.11,-0.17 0.21,-0.16zm0 1.18c0.44,0.05 0.84,0.24 1.17,0.54 0.33,0.3 0.55,0.69 0.65,1.12 0.02,0.1 -0.04,0.2 -0.14,0.22 -0.01,0 -0.02,0 -0.03,0 -0.09,0 -0.17,-0.06 -0.19,-0.15 -0.08,-0.36 -0.26,-0.68 -0.53,-0.93 -0.27,-0.25 -0.61,-0.41 -0.97,-0.45 -0.1,-0.01 -0.17,-0.11 -0.16,-0.21 0.01,-0.1 0.11,-0.17 0.21,-0.16z"/>
   <g>
    <path class="fil3 str0" d="M378.9 16.27l5.6 0c1.56,0 2.84,1.28 2.84,2.84l0 5.6c0,1.56 -1.28,2.84 -2.84,2.84l-5.6 0c-1.56,0 -2.84,-1.28 -2.84,-2.84l0 -5.6c0,-1.56 1.28,-2.84 2.84,-2.84z"/>
   </g>
   <path class="fil1" d="M379.02 16.9l5.36 0c1.29,0 2.34,1.05 2.34,2.34l0 5.36c0,1.29 -1.05,2.34 -2.34,2.34l-5.36 0c-1.29,0 -2.34,-1.05 -2.34,-2.34l0 -5.36c0,-1.29 1.05,-2.34 2.34,-2.34zm5.86 2.19l-6.51 2.47c-0.18,0.07 -0.18,0.33 0.01,0.39l1.68 0.57 3.82 -2.47 -3.03 2.82 -0.07 1.59 1.02 -0.87 1.4 1.07c0.24,0.19 0.6,0.06 0.68,-0.24l1.27 -5.09c0.04,-0.16 -0.12,-0.31 -0.28,-0.25z"/>
   <g>
    <path class="fil3 str0" d="M391.85 16.27l5.6 0c1.56,0 2.84,1.28 2.84,2.84l0 5.6c0,1.56 -1.28,2.84 -2.84,2.84l-5.6 0c-1.56,0 -2.84,-1.28 -2.84,-2.84l0 -5.6c0,-1.56 1.28,-2.84 2.84,-2.84z"/>
   </g>
   <path class="fil1" d="M391.97 16.9l5.36 0c1.29,0 2.34,1.05 2.34,2.34l0 5.36c0,1.29 -1.05,2.34 -2.34,2.34l-5.36 0c-1.29,0 -2.34,-1.05 -2.34,-2.34l0 -5.36c0,-1.29 1.05,-2.34 2.34,-2.34zm1.19 7.2l0.09 0.06c0.42,0.26 0.9,0.4 1.4,0.4 1.46,0 2.64,-1.18 2.64,-2.64 0,-1.46 -1.18,-2.64 -2.64,-2.64 -1.46,0 -2.64,1.18 -2.64,2.64 0,0.59 0.19,1.15 0.56,1.62l0.06 0.08 -0.14 0.7 0.66 -0.23zm1.49 0.92c-0.54,0 -1.08,-0.14 -1.55,-0.42l-1.21 0.42 0.25 -1.28c-0.39,-0.53 -0.59,-1.16 -0.59,-1.82 0,-1.71 1.39,-3.1 3.1,-3.1 1.71,0 3.1,1.39 3.1,3.1 0,1.71 -1.39,3.1 -3.1,3.1zm-1.57 -4.3c0,0 0.18,-0.32 0.33,-0.34 0.15,-0.02 0.34,-0.02 0.39,0.08 0.05,0.1 0.28,0.66 0.28,0.66 0,0 0.04,0.1 -0.02,0.19 -0.06,0.09 -0.2,0.23 -0.2,0.23 0,0 -0.08,0.1 0,0.2 0.08,0.1 0.19,0.29 0.44,0.54 0.24,0.24 0.71,0.42 0.71,0.42 0,0 0.07,0.01 0.11,-0.03 0.04,-0.04 0.27,-0.33 0.27,-0.33 0,0 0.07,-0.1 0.2,-0.04 0.12,0.06 0.65,0.32 0.65,0.32 0,0 0.06,0.02 0.06,0.12 0,0.09 -0.04,0.32 -0.12,0.4 -0.08,0.08 -0.31,0.32 -0.65,0.32 -0.34,0 -1.15,-0.28 -1.59,-0.71 -0.43,-0.43 -0.82,-0.87 -0.91,-1.27 -0.09,-0.4 -0.08,-0.58 0.03,-0.75z"/>
   <polygon class="fil4" points="380.03,22.43 380.77,24.45 384.07,19.86 "/>
   <g>
    <path class="fil3 str0" d="M365.95 29.41l5.6 0c1.56,0 2.84,1.28 2.84,2.84l0 5.6c0,1.56 -1.28,2.84 -2.84,2.84l-5.6 0c-1.56,0 -2.84,-1.28 -2.84,-2.84l0 -5.6c0,-1.56 1.28,-2.84 2.84,-2.84z"/>
   </g>
   <g>
    <path class="fil5" d="M380.49 38.69l0 -7.34 0.85 0 0 2.47c0.2,-0.12 0.4,-0.22 0.59,-0.3 0.19,-0.08 0.39,-0.14 0.59,-0.18 0.2,-0.04 0.41,-0.07 0.64,-0.07 0.32,0 0.59,0.05 0.81,0.16 0.22,0.11 0.39,0.27 0.51,0.49 0.12,0.22 0.17,0.49 0.17,0.81l0 3.96 -0.85 0 0 -3.73c0,-0.31 -0.08,-0.55 -0.24,-0.72 -0.16,-0.17 -0.4,-0.25 -0.74,-0.25 -0.18,0 -0.35,0.02 -0.51,0.06 -0.16,0.04 -0.33,0.09 -0.49,0.15 -0.16,0.06 -0.33,0.14 -0.5,0.22l0 4.26 -0.85 0zm9.05 0.1c-0.37,0 -0.69,-0.05 -0.98,-0.15 -0.28,-0.1 -0.52,-0.25 -0.72,-0.47 -0.19,-0.21 -0.34,-0.48 -0.44,-0.81 -0.1,-0.33 -0.15,-0.73 -0.15,-1.19 0,-0.54 0.06,-0.99 0.18,-1.36 0.12,-0.37 0.3,-0.67 0.52,-0.89 0.22,-0.23 0.48,-0.39 0.78,-0.49 0.29,-0.1 0.61,-0.15 0.96,-0.15 0.67,0 1.18,0.18 1.51,0.54 0.33,0.36 0.5,0.94 0.5,1.75 0,0.04 -0,0.1 -0,0.17 -0,0.07 -0.01,0.14 -0.02,0.21 -0.14,0.01 -0.32,0.02 -0.56,0.04 -0.23,0.02 -0.51,0.04 -0.82,0.06 -0.31,0.02 -0.65,0.04 -1.02,0.05 -0.37,0.01 -0.76,0.02 -1.17,0.03 -0.01,0.03 -0.01,0.07 -0.01,0.1 0,0.03 0,0.07 0,0.1 0,0.43 0.06,0.78 0.18,1.04 0.12,0.26 0.3,0.45 0.54,0.57 0.24,0.12 0.52,0.18 0.85,0.18 0.21,0 0.43,-0.01 0.64,-0.04 0.22,-0.02 0.43,-0.05 0.63,-0.09 0.2,-0.04 0.39,-0.08 0.56,-0.12l0.11 0.62c-0.18,0.06 -0.39,0.11 -0.61,0.16 -0.22,0.04 -0.45,0.08 -0.7,0.1 -0.24,0.02 -0.5,0.04 -0.78,0.04zm-1.42 -3.24c0.32,0 0.63,-0.01 0.92,-0.02 0.29,-0.01 0.56,-0.02 0.81,-0.04 0.25,-0.01 0.46,-0.03 0.63,-0.04 0.17,-0.01 0.3,-0.02 0.38,-0.03 -0.01,-0.37 -0.05,-0.66 -0.14,-0.89 -0.09,-0.22 -0.22,-0.39 -0.4,-0.49 -0.18,-0.1 -0.41,-0.15 -0.68,-0.15 -0.18,0 -0.35,0.02 -0.51,0.07 -0.16,0.05 -0.32,0.13 -0.46,0.26 -0.14,0.12 -0.26,0.29 -0.36,0.51 -0.1,0.21 -0.16,0.49 -0.19,0.82zm5.86 2.3c0.11,0.05 0.23,0.09 0.38,0.12 0.14,0.03 0.29,0.06 0.44,0.09 0.15,0.03 0.31,0.05 0.47,0.06 0.16,0.01 0.31,0.02 0.46,0.02 0.42,0 0.73,-0.07 0.94,-0.21 0.21,-0.14 0.32,-0.35 0.32,-0.61 0,-0.14 -0.03,-0.26 -0.09,-0.36 -0.06,-0.1 -0.15,-0.19 -0.27,-0.27 -0.12,-0.08 -0.27,-0.14 -0.45,-0.21 -0.18,-0.06 -0.39,-0.13 -0.63,-0.19 -0.23,-0.06 -0.44,-0.13 -0.62,-0.21 -0.18,-0.08 -0.34,-0.18 -0.48,-0.31 -0.14,-0.12 -0.24,-0.27 -0.31,-0.43 -0.07,-0.16 -0.11,-0.35 -0.11,-0.56 0,-0.48 0.17,-0.85 0.5,-1.11 0.33,-0.26 0.83,-0.39 1.48,-0.39 0.2,0 0.39,0.01 0.57,0.03 0.18,0.02 0.35,0.04 0.52,0.08 0.16,0.04 0.31,0.08 0.43,0.14l-0.12 0.63c-0.13,-0.04 -0.27,-0.08 -0.41,-0.11 -0.14,-0.03 -0.29,-0.06 -0.46,-0.08 -0.16,-0.02 -0.34,-0.03 -0.53,-0.03 -0.39,0 -0.68,0.07 -0.88,0.2 -0.2,0.14 -0.3,0.32 -0.3,0.56 0,0.15 0.03,0.27 0.09,0.37 0.06,0.1 0.15,0.18 0.28,0.25 0.12,0.07 0.27,0.13 0.43,0.18 0.16,0.05 0.34,0.11 0.53,0.15 0.25,0.07 0.48,0.14 0.69,0.23 0.2,0.08 0.38,0.18 0.52,0.3 0.14,0.12 0.25,0.27 0.33,0.44 0.08,0.17 0.12,0.38 0.12,0.63 0,0.21 -0.03,0.4 -0.1,0.57 -0.07,0.17 -0.16,0.31 -0.29,0.43 -0.12,0.12 -0.27,0.22 -0.44,0.3 -0.17,0.07 -0.37,0.13 -0.58,0.17 -0.21,0.04 -0.44,0.06 -0.69,0.06 -0.22,0 -0.45,-0.01 -0.67,-0.04 -0.22,-0.02 -0.43,-0.06 -0.63,-0.1 -0.2,-0.04 -0.38,-0.1 -0.55,-0.17l0.12 -0.63zm5.95 -0.44c0,-0.31 0.07,-0.57 0.2,-0.78 0.13,-0.21 0.34,-0.37 0.61,-0.49 0.27,-0.12 0.61,-0.21 1,-0.29 0.4,-0.07 0.86,-0.13 1.39,-0.18l0 -0.74c0,-0.31 -0.1,-0.54 -0.31,-0.7 -0.2,-0.16 -0.5,-0.24 -0.9,-0.24 -0.13,0 -0.28,0.01 -0.44,0.02 -0.17,0.01 -0.34,0.03 -0.52,0.07 -0.18,0.03 -0.36,0.08 -0.55,0.14l-0.15 -0.67c0.29,-0.09 0.58,-0.15 0.87,-0.2 0.3,-0.04 0.58,-0.07 0.84,-0.07 0.44,0 0.8,0.06 1.09,0.18 0.29,0.12 0.51,0.3 0.66,0.55 0.15,0.24 0.22,0.55 0.22,0.92l0 2.58c0,0.22 0.03,0.36 0.09,0.44 0.06,0.07 0.15,0.11 0.26,0.11 0.04,0 0.08,-0 0.13,-0.01 0.04,-0.01 0.09,-0.02 0.15,-0.04l0.09 0.62c-0.1,0.05 -0.21,0.09 -0.32,0.12 -0.11,0.03 -0.22,0.05 -0.34,0.05 -0.24,0 -0.43,-0.06 -0.57,-0.18 -0.14,-0.12 -0.23,-0.31 -0.27,-0.56 -0.16,0.13 -0.33,0.25 -0.53,0.37 -0.19,0.12 -0.41,0.21 -0.63,0.28 -0.23,0.07 -0.48,0.1 -0.75,0.1 -0.2,0 -0.39,-0.03 -0.55,-0.09 -0.16,-0.06 -0.3,-0.14 -0.42,-0.26 -0.12,-0.12 -0.21,-0.26 -0.28,-0.43 -0.06,-0.17 -0.1,-0.37 -0.1,-0.6zm0.85 -0.07c0,0.29 0.07,0.5 0.21,0.64 0.14,0.14 0.33,0.21 0.57,0.21 0.18,0 0.37,-0.03 0.56,-0.09 0.19,-0.06 0.37,-0.14 0.54,-0.25 0.17,-0.1 0.33,-0.22 0.48,-0.35l0 -1.34c-0.36,0.03 -0.69,0.07 -0.97,0.11 -0.29,0.04 -0.53,0.11 -0.74,0.19 -0.21,0.09 -0.37,0.2 -0.48,0.34 -0.11,0.14 -0.16,0.31 -0.16,0.52zm6.18 1.35l0 -5.32 0.76 0 0 0.47c0.18,-0.12 0.37,-0.22 0.56,-0.3 0.19,-0.08 0.38,-0.14 0.57,-0.19 0.19,-0.05 0.4,-0.07 0.61,-0.07 0.2,0 0.37,0.03 0.52,0.08 0.15,0.05 0.28,0.12 0.38,0.21 0.11,0.09 0.19,0.2 0.25,0.33 0.18,-0.12 0.36,-0.22 0.55,-0.31 0.19,-0.09 0.39,-0.16 0.61,-0.22 0.22,-0.06 0.46,-0.09 0.72,-0.09 0.2,0 0.37,0.03 0.53,0.08 0.15,0.05 0.28,0.12 0.39,0.21 0.11,0.09 0.19,0.2 0.27,0.32 0.07,0.12 0.12,0.26 0.15,0.4 0.03,0.15 0.05,0.29 0.05,0.44l0 3.96 -0.84 0 0 -3.73c0,-0.11 -0.01,-0.22 -0.04,-0.34 -0.03,-0.12 -0.07,-0.22 -0.13,-0.32 -0.06,-0.1 -0.15,-0.17 -0.27,-0.23 -0.12,-0.06 -0.27,-0.09 -0.46,-0.09 -0.18,0 -0.35,0.02 -0.52,0.07 -0.17,0.04 -0.32,0.1 -0.47,0.16 -0.14,0.06 -0.27,0.13 -0.39,0.21 0.03,0.08 0.05,0.17 0.06,0.25 0.01,0.09 0.02,0.17 0.02,0.24l0 3.77 -0.83 0 0 -3.71c0,-0.12 -0.01,-0.23 -0.04,-0.35 -0.03,-0.12 -0.07,-0.22 -0.14,-0.31 -0.06,-0.09 -0.15,-0.17 -0.27,-0.23 -0.12,-0.06 -0.27,-0.09 -0.45,-0.09 -0.16,0 -0.31,0.02 -0.46,0.06 -0.15,0.04 -0.29,0.09 -0.43,0.15 -0.14,0.06 -0.29,0.14 -0.43,0.22l0 4.26 -0.83 0zm10.21 -0.94c-0.08,0.1 -0.12,0.2 -0.12,0.3 0,0.12 0.06,0.25 0.18,0.37 0.12,0.12 0.23,0.17 0.34,0.17 0.12,0 0.23,-0.06 0.33,-0.17 0.12,-0.12 0.17,-0.23 0.17,-0.34 0,-0.1 -0.06,-0.21 -0.17,-0.33 -0.1,-0.13 -0.21,-0.19 -0.34,-0.19 -0.12,0 -0.25,0.06 -0.39,0.19zm5.32 1.04c-0.32,0 -0.59,-0.06 -0.8,-0.18 -0.21,-0.12 -0.37,-0.31 -0.48,-0.56 -0.1,-0.25 -0.15,-0.56 -0.15,-0.93l0 -3.13 -0.91 0 0 -0.55 0.91 -0.07 0.1 -1.26 0.73 0 0 1.26 1.78 0 0 0.62 -1.78 0 0 3.07c0,0.36 0.07,0.62 0.2,0.78 0.14,0.16 0.36,0.24 0.67,0.24 0.16,0 0.32,-0.02 0.48,-0.05 0.16,-0.03 0.32,-0.07 0.48,-0.11l0.11 0.64c-0.24,0.08 -0.47,0.13 -0.7,0.17 -0.22,0.04 -0.44,0.06 -0.64,0.06zm3.3 -1.38c0,-0.31 0.07,-0.57 0.2,-0.78 0.13,-0.21 0.34,-0.37 0.61,-0.49 0.27,-0.12 0.61,-0.21 1,-0.29 0.4,-0.07 0.86,-0.13 1.39,-0.18l0 -0.74c0,-0.31 -0.1,-0.54 -0.31,-0.7 -0.2,-0.16 -0.5,-0.24 -0.9,-0.24 -0.13,0 -0.28,0.01 -0.45,0.02 -0.17,0.01 -0.34,0.03 -0.52,0.07 -0.18,0.03 -0.36,0.08 -0.55,0.14l-0.15 -0.67c0.29,-0.09 0.58,-0.15 0.87,-0.2 0.3,-0.04 0.58,-0.07 0.84,-0.07 0.44,0 0.8,0.06 1.09,0.18 0.29,0.12 0.51,0.3 0.66,0.55 0.15,0.24 0.23,0.55 0.23,0.92l0 2.58c0,0.22 0.03,0.36 0.09,0.44 0.06,0.07 0.15,0.11 0.26,0.11 0.04,0 0.08,-0 0.13,-0.01 0.04,-0.01 0.09,-0.02 0.15,-0.04l0.09 0.62c-0.1,0.05 -0.21,0.09 -0.32,0.12 -0.11,0.03 -0.22,0.05 -0.34,0.05 -0.24,0 -0.43,-0.06 -0.57,-0.18 -0.14,-0.12 -0.23,-0.31 -0.27,-0.56 -0.16,0.13 -0.33,0.25 -0.53,0.37 -0.19,0.12 -0.41,0.21 -0.63,0.28 -0.23,0.07 -0.48,0.1 -0.75,0.1 -0.2,0 -0.39,-0.03 -0.55,-0.09 -0.16,-0.06 -0.3,-0.14 -0.42,-0.26 -0.12,-0.12 -0.21,-0.26 -0.28,-0.43 -0.06,-0.17 -0.1,-0.37 -0.1,-0.6zm0.85 -0.07c0,0.29 0.07,0.5 0.21,0.64 0.14,0.14 0.33,0.21 0.57,0.21 0.18,0 0.37,-0.03 0.56,-0.09 0.19,-0.06 0.37,-0.14 0.54,-0.25 0.17,-0.1 0.33,-0.22 0.48,-0.35l0 -1.34c-0.36,0.03 -0.69,0.07 -0.97,0.11 -0.29,0.04 -0.53,0.11 -0.74,0.19 -0.21,0.09 -0.37,0.2 -0.48,0.34 -0.11,0.14 -0.16,0.31 -0.16,0.52zm7.56 1.35l-1.95 -5.3 0.88 -0.05 1.55 4.52 1.52 -4.52 0.87 0.05 -1.96 5.3 -0.91 0zm4.86 -1.28c0,-0.31 0.07,-0.57 0.2,-0.78 0.13,-0.21 0.34,-0.37 0.61,-0.49 0.27,-0.12 0.61,-0.21 1,-0.29 0.4,-0.07 0.86,-0.13 1.39,-0.18l0 -0.74c0,-0.31 -0.1,-0.54 -0.31,-0.7 -0.2,-0.16 -0.5,-0.24 -0.9,-0.24 -0.13,0 -0.28,0.01 -0.45,0.02 -0.17,0.01 -0.34,0.03 -0.52,0.07 -0.18,0.03 -0.36,0.08 -0.55,0.14l-0.15 -0.67c0.29,-0.09 0.58,-0.15 0.87,-0.2 0.3,-0.04 0.58,-0.07 0.84,-0.07 0.44,0 0.8,0.06 1.09,0.18 0.29,0.12 0.51,0.3 0.66,0.55 0.15,0.24 0.22,0.55 0.22,0.92l0 2.58c0,0.22 0.03,0.36 0.09,0.44 0.06,0.07 0.15,0.11 0.26,0.11 0.04,0 0.08,-0 0.13,-0.01 0.04,-0.01 0.09,-0.02 0.15,-0.04l0.09 0.62c-0.1,0.05 -0.21,0.09 -0.32,0.12 -0.11,0.03 -0.22,0.05 -0.34,0.05 -0.24,0 -0.43,-0.06 -0.57,-0.18 -0.14,-0.12 -0.23,-0.31 -0.27,-0.56 -0.16,0.13 -0.33,0.25 -0.53,0.37 -0.19,0.12 -0.41,0.21 -0.63,0.28 -0.23,0.07 -0.48,0.1 -0.75,0.1 -0.2,0 -0.39,-0.03 -0.55,-0.09 -0.16,-0.06 -0.3,-0.14 -0.42,-0.26 -0.12,-0.12 -0.21,-0.26 -0.28,-0.43 -0.06,-0.17 -0.1,-0.37 -0.1,-0.6zm0.85 -0.07c0,0.29 0.07,0.5 0.21,0.64 0.14,0.14 0.33,0.21 0.57,0.21 0.18,0 0.37,-0.03 0.56,-0.09 0.19,-0.06 0.37,-0.14 0.54,-0.25 0.17,-0.1 0.33,-0.22 0.48,-0.35l0 -1.34c-0.36,0.03 -0.69,0.07 -0.97,0.11 -0.29,0.04 -0.53,0.11 -0.74,0.19 -0.21,0.09 -0.37,0.2 -0.48,0.34 -0.11,0.14 -0.16,0.31 -0.16,0.52zm6.15 -5.99l0.82 0 0 2.51c0.3,-0.2 0.59,-0.34 0.86,-0.43 0.28,-0.09 0.56,-0.14 0.84,-0.14 0.57,0 1.01,0.23 1.32,0.67 0.31,0.45 0.46,1.1 0.46,1.94 0,0.68 -0.09,1.24 -0.26,1.66 -0.17,0.43 -0.44,0.74 -0.8,0.94 -0.36,0.2 -0.83,0.3 -1.41,0.3 -0.27,0 -0.55,-0.02 -0.85,-0.06 -0.3,-0.04 -0.63,-0.1 -0.99,-0.17l0 -7.21zm0.82 6.7c0.21,0.04 0.4,0.07 0.57,0.1 0.17,0.02 0.32,0.04 0.47,0.04 0.37,0 0.67,-0.07 0.91,-0.22 0.23,-0.15 0.41,-0.38 0.53,-0.71 0.12,-0.33 0.17,-0.76 0.17,-1.3 0,-0.44 -0.05,-0.8 -0.14,-1.09 -0.1,-0.29 -0.23,-0.51 -0.41,-0.65 -0.18,-0.15 -0.4,-0.22 -0.66,-0.22 -0.16,0 -0.31,0.02 -0.46,0.05 -0.15,0.03 -0.3,0.08 -0.46,0.15 -0.16,0.07 -0.33,0.17 -0.51,0.29l0 3.57zm8.14 0.75c-0.37,0 -0.69,-0.05 -0.98,-0.15 -0.28,-0.1 -0.52,-0.25 -0.72,-0.47 -0.19,-0.21 -0.34,-0.48 -0.44,-0.81 -0.1,-0.33 -0.15,-0.73 -0.15,-1.19 0,-0.54 0.06,-0.99 0.18,-1.36 0.12,-0.37 0.3,-0.67 0.52,-0.89 0.22,-0.23 0.48,-0.39 0.78,-0.49 0.29,-0.1 0.61,-0.15 0.96,-0.15 0.67,0 1.18,0.18 1.51,0.54 0.33,0.36 0.5,0.94 0.5,1.75 0,0.04 -0,0.1 -0,0.17 -0,0.07 -0.01,0.14 -0.02,0.21 -0.14,0.01 -0.32,0.02 -0.56,0.04 -0.23,0.02 -0.51,0.04 -0.82,0.06 -0.31,0.02 -0.65,0.04 -1.02,0.05 -0.37,0.01 -0.76,0.02 -1.17,0.03 -0.01,0.03 -0.01,0.07 -0.01,0.1 0,0.03 0,0.07 0,0.1 0,0.43 0.06,0.78 0.18,1.04 0.12,0.26 0.3,0.45 0.54,0.57 0.24,0.12 0.52,0.18 0.85,0.18 0.21,0 0.43,-0.01 0.64,-0.04 0.22,-0.02 0.43,-0.05 0.63,-0.09 0.2,-0.04 0.39,-0.08 0.56,-0.12l0.11 0.62c-0.18,0.06 -0.39,0.11 -0.61,0.16 -0.22,0.04 -0.45,0.08 -0.7,0.1 -0.24,0.02 -0.5,0.04 -0.78,0.04zm-1.42 -3.24c0.32,0 0.63,-0.01 0.92,-0.02 0.29,-0.01 0.56,-0.02 0.81,-0.04 0.25,-0.01 0.46,-0.03 0.63,-0.04 0.17,-0.01 0.3,-0.02 0.38,-0.03 -0.01,-0.37 -0.05,-0.66 -0.14,-0.89 -0.09,-0.22 -0.22,-0.39 -0.4,-0.49 -0.18,-0.1 -0.41,-0.15 -0.68,-0.15 -0.18,0 -0.35,0.02 -0.51,0.07 -0.16,0.05 -0.32,0.13 -0.46,0.26 -0.14,0.12 -0.26,0.29 -0.36,0.51 -0.1,0.21 -0.16,0.49 -0.19,0.82zm9.43 4.41c-0.52,0 -1,-0.07 -1.43,-0.23 -0.43,-0.15 -0.8,-0.38 -1.11,-0.7 -0.31,-0.31 -0.55,-0.72 -0.71,-1.21 -0.16,-0.49 -0.24,-1.08 -0.24,-1.77 0,-0.63 0.08,-1.21 0.23,-1.74 0.15,-0.54 0.39,-1 0.71,-1.39 0.32,-0.39 0.71,-0.7 1.18,-0.92 0.47,-0.22 1.03,-0.33 1.67,-0.33 0.74,0 1.35,0.13 1.86,0.4 0.5,0.27 0.88,0.67 1.13,1.21 0.26,0.54 0.38,1.2 0.38,2.01 0,0.4 -0.03,0.77 -0.09,1.11 -0.06,0.34 -0.16,0.65 -0.29,0.92 -0.13,0.27 -0.29,0.48 -0.49,0.63 -0.19,0.15 -0.43,0.22 -0.7,0.21 -0.18,0 -0.34,-0.03 -0.48,-0.09 -0.13,-0.06 -0.24,-0.15 -0.32,-0.28 -0.08,-0.13 -0.14,-0.28 -0.19,-0.46 -0.04,-0.18 -0.08,-0.39 -0.1,-0.62 -0.1,0.29 -0.22,0.55 -0.37,0.76 -0.15,0.21 -0.32,0.37 -0.51,0.48 -0.19,0.11 -0.4,0.16 -0.64,0.16 -0.26,0 -0.49,-0.07 -0.68,-0.2 -0.19,-0.14 -0.35,-0.35 -0.46,-0.65 -0.11,-0.3 -0.17,-0.68 -0.17,-1.14 0,-0.37 0.04,-0.72 0.13,-1.05 0.09,-0.32 0.22,-0.61 0.39,-0.86 0.18,-0.25 0.4,-0.45 0.67,-0.59 0.27,-0.14 0.58,-0.21 0.95,-0.21 0.17,0 0.34,0.01 0.51,0.04 0.17,0.02 0.34,0.06 0.52,0.1 0.17,0.04 0.35,0.09 0.54,0.15l-0.17 2.56c-0.02,0.35 -0.01,0.61 0.03,0.8 0.04,0.18 0.11,0.31 0.2,0.39 0.09,0.08 0.2,0.11 0.31,0.11 0.18,0 0.33,-0.1 0.46,-0.29 0.13,-0.19 0.23,-0.45 0.3,-0.79 0.07,-0.34 0.11,-0.71 0.11,-1.13 0,-0.71 -0.1,-1.3 -0.3,-1.77 -0.2,-0.47 -0.51,-0.82 -0.94,-1.06 -0.43,-0.24 -0.98,-0.36 -1.66,-0.36 -0.53,0 -0.99,0.1 -1.39,0.3 -0.39,0.2 -0.72,0.47 -0.98,0.82 -0.26,0.35 -0.45,0.76 -0.58,1.24 -0.13,0.47 -0.19,0.99 -0.19,1.56 0,0.61 0.07,1.12 0.21,1.55 0.14,0.43 0.34,0.78 0.6,1.04 0.26,0.26 0.57,0.46 0.93,0.58 0.36,0.12 0.77,0.18 1.2,0.18 0.36,0 0.7,-0.04 1.02,-0.13 0.32,-0.09 0.6,-0.2 0.85,-0.33l0.16 0.43c-0.16,0.1 -0.36,0.18 -0.58,0.27 -0.23,0.08 -0.46,0.15 -0.72,0.2 -0.25,0.05 -0.51,0.08 -0.77,0.08zm-0.21 -2.61c0.12,0 0.24,-0.03 0.36,-0.09 0.12,-0.06 0.22,-0.16 0.32,-0.31 0.1,-0.15 0.19,-0.35 0.27,-0.61 0.08,-0.26 0.14,-0.6 0.18,-1.01l0.1 -1.15c-0.12,-0.03 -0.25,-0.06 -0.38,-0.08 -0.13,-0.02 -0.25,-0.03 -0.37,-0.03 -0.2,0 -0.37,0.06 -0.51,0.17 -0.14,0.12 -0.27,0.27 -0.37,0.47 -0.1,0.19 -0.18,0.41 -0.23,0.65 -0.05,0.24 -0.08,0.49 -0.08,0.75 0,0.29 0.03,0.53 0.09,0.72 0.06,0.18 0.14,0.32 0.25,0.39 0.11,0.08 0.22,0.12 0.35,0.12zm8.42 3.59c-0.77,0 -1.35,-0.12 -1.74,-0.36 -0.39,-0.24 -0.58,-0.6 -0.58,-1.07 0,-0.18 0.03,-0.35 0.09,-0.51 0.06,-0.15 0.16,-0.29 0.29,-0.42 0.13,-0.13 0.29,-0.24 0.49,-0.33l0.53 0.18c-0.16,0.06 -0.29,0.14 -0.39,0.23 -0.1,0.09 -0.18,0.19 -0.23,0.31 -0.05,0.11 -0.08,0.24 -0.08,0.38 0,0.21 0.06,0.39 0.18,0.54 0.12,0.15 0.3,0.26 0.55,0.33 0.25,0.07 0.56,0.11 0.93,0.11 0.4,0 0.72,-0.04 0.99,-0.12 0.26,-0.08 0.47,-0.2 0.61,-0.35 0.14,-0.15 0.21,-0.34 0.21,-0.56 0,-0.16 -0.04,-0.3 -0.11,-0.4 -0.07,-0.1 -0.18,-0.18 -0.33,-0.23 -0.15,-0.05 -0.34,-0.08 -0.58,-0.08l-1.36 0c-0.32,0 -0.59,-0.04 -0.82,-0.12 -0.23,-0.08 -0.4,-0.2 -0.52,-0.37 -0.12,-0.16 -0.17,-0.36 -0.17,-0.59 0,-0.24 0.06,-0.45 0.19,-0.63 0.13,-0.18 0.31,-0.34 0.55,-0.48l0.48 0.17c-0.18,0.1 -0.31,0.2 -0.41,0.32 -0.1,0.12 -0.14,0.26 -0.14,0.41 0,0.18 0.07,0.32 0.2,0.42 0.13,0.1 0.35,0.15 0.64,0.15l1.61 0c0.52,0 0.91,0.12 1.18,0.35 0.27,0.23 0.4,0.57 0.4,1 0,0.36 -0.11,0.67 -0.32,0.93 -0.21,0.26 -0.51,0.45 -0.9,0.59 -0.39,0.14 -0.86,0.21 -1.42,0.21zm0.06 -4.14c-0.67,0 -1.17,-0.15 -1.51,-0.44 -0.34,-0.29 -0.51,-0.72 -0.51,-1.29 0,-0.58 0.17,-1.01 0.51,-1.3 0.34,-0.29 0.85,-0.43 1.51,-0.43 0.67,0 1.17,0.14 1.51,0.43 0.34,0.29 0.51,0.72 0.51,1.3 0,0.57 -0.17,1 -0.51,1.29 -0.34,0.29 -0.85,0.44 -1.51,0.44zm0 -0.58c0.41,0 0.71,-0.09 0.92,-0.27 0.2,-0.18 0.3,-0.47 0.3,-0.87 0,-0.41 -0.1,-0.71 -0.3,-0.89 -0.2,-0.18 -0.51,-0.28 -0.92,-0.28 -0.41,0 -0.71,0.09 -0.92,0.28 -0.2,0.18 -0.3,0.48 -0.3,0.89 0,0.4 0.1,0.69 0.3,0.87 0.2,0.18 0.51,0.27 0.92,0.27zm1.19 -2.46c0.08,-0.21 0.21,-0.37 0.39,-0.48 0.18,-0.11 0.39,-0.16 0.64,-0.16 0.07,0 0.13,0 0.2,0.01 0.06,0.01 0.13,0.02 0.19,0.03l-0.08 0.66c-0.05,-0.01 -0.1,-0.02 -0.15,-0.03 -0.05,-0.01 -0.11,-0.01 -0.16,-0.01 -0.16,0 -0.29,0.03 -0.4,0.1 -0.11,0.06 -0.2,0.17 -0.27,0.31l-0.35 -0.44zm3.82 4.94l0 -5.32 0.76 0 0 0.47c0.18,-0.12 0.37,-0.22 0.56,-0.3 0.19,-0.08 0.38,-0.14 0.57,-0.19 0.19,-0.05 0.4,-0.07 0.61,-0.07 0.2,0 0.37,0.03 0.52,0.08 0.15,0.05 0.28,0.12 0.38,0.21 0.11,0.09 0.19,0.2 0.25,0.33 0.18,-0.12 0.36,-0.22 0.55,-0.31 0.19,-0.09 0.39,-0.16 0.61,-0.22 0.22,-0.06 0.46,-0.09 0.72,-0.09 0.2,0 0.37,0.03 0.53,0.08 0.15,0.05 0.28,0.12 0.39,0.21 0.11,0.09 0.19,0.2 0.27,0.32 0.07,0.12 0.12,0.26 0.15,0.4 0.03,0.15 0.05,0.29 0.05,0.44l0 3.96 -0.84 0 0 -3.73c0,-0.11 -0.01,-0.22 -0.04,-0.34 -0.03,-0.12 -0.07,-0.22 -0.13,-0.32 -0.06,-0.1 -0.15,-0.17 -0.27,-0.23 -0.12,-0.06 -0.27,-0.09 -0.46,-0.09 -0.18,0 -0.35,0.02 -0.52,0.07 -0.17,0.04 -0.32,0.1 -0.47,0.16 -0.14,0.06 -0.27,0.13 -0.39,0.21 0.03,0.08 0.05,0.17 0.06,0.25 0.01,0.09 0.02,0.17 0.02,0.24l0 3.77 -0.83 0 0 -3.71c0,-0.12 -0.01,-0.23 -0.04,-0.35 -0.03,-0.12 -0.07,-0.22 -0.14,-0.31 -0.06,-0.09 -0.15,-0.17 -0.27,-0.23 -0.12,-0.06 -0.27,-0.09 -0.45,-0.09 -0.16,0 -0.31,0.02 -0.46,0.06 -0.15,0.04 -0.29,0.09 -0.43,0.15 -0.14,0.06 -0.29,0.14 -0.43,0.22l0 4.26 -0.83 0z"/>
    <path class="fil5" d="M485.78 37.41c0,-0.31 0.07,-0.57 0.2,-0.78 0.13,-0.21 0.34,-0.37 0.61,-0.49 0.27,-0.12 0.61,-0.21 1,-0.29 0.4,-0.07 0.86,-0.13 1.39,-0.18l0 -0.74c0,-0.31 -0.1,-0.54 -0.31,-0.7 -0.2,-0.16 -0.5,-0.24 -0.9,-0.24 -0.13,0 -0.28,0.01 -0.44,0.02 -0.17,0.01 -0.34,0.03 -0.52,0.07 -0.18,0.03 -0.36,0.08 -0.55,0.14l-0.15 -0.67c0.29,-0.09 0.58,-0.15 0.87,-0.2 0.3,-0.04 0.58,-0.07 0.84,-0.07 0.44,0 0.8,0.06 1.09,0.18 0.29,0.12 0.51,0.3 0.66,0.55 0.15,0.24 0.23,0.55 0.23,0.92l0 2.58c0,0.22 0.03,0.36 0.09,0.44 0.06,0.07 0.15,0.11 0.26,0.11 0.04,0 0.08,-0 0.13,-0.01 0.04,-0.01 0.09,-0.02 0.15,-0.04l0.09 0.62c-0.1,0.05 -0.21,0.09 -0.32,0.12 -0.11,0.03 -0.22,0.05 -0.34,0.05 -0.24,0 -0.43,-0.06 -0.57,-0.18 -0.14,-0.12 -0.23,-0.31 -0.27,-0.56 -0.16,0.13 -0.33,0.25 -0.53,0.37 -0.19,0.12 -0.41,0.21 -0.63,0.28 -0.23,0.07 -0.48,0.1 -0.75,0.1 -0.2,0 -0.39,-0.03 -0.55,-0.09 -0.16,-0.06 -0.3,-0.14 -0.42,-0.26 -0.12,-0.12 -0.21,-0.26 -0.28,-0.43 -0.06,-0.17 -0.1,-0.37 -0.1,-0.6zm0.85 -0.07c0,0.29 0.07,0.5 0.21,0.64 0.14,0.14 0.33,0.21 0.57,0.21 0.18,0 0.37,-0.03 0.56,-0.09 0.19,-0.06 0.37,-0.14 0.54,-0.25 0.17,-0.1 0.33,-0.22 0.48,-0.35l0 -1.34c-0.36,0.03 -0.69,0.07 -0.97,0.11 -0.29,0.04 -0.53,0.11 -0.74,0.19 -0.21,0.09 -0.37,0.2 -0.48,0.34 -0.11,0.14 -0.16,0.31 -0.16,0.52zm6.09 1.35l0 -5.32 0.83 0 0 5.32 -0.83 0zm0 -7.29l0.83 0 0 0.93 -0.83 0 0 -0.93zm4.42 -0.05l0 5.88c0,0.23 0.02,0.41 0.07,0.53 0.05,0.12 0.12,0.2 0.2,0.24 0.09,0.04 0.19,0.06 0.3,0.06 0.07,0 0.14,-0.01 0.23,-0.02 0.09,-0.01 0.17,-0.04 0.26,-0.07l0.09 0.66c-0.11,0.05 -0.23,0.09 -0.37,0.12 -0.14,0.03 -0.28,0.05 -0.43,0.05 -0.24,0 -0.45,-0.04 -0.63,-0.13 -0.18,-0.09 -0.32,-0.24 -0.41,-0.46 -0.09,-0.22 -0.14,-0.52 -0.14,-0.91l0 -5.95 0.83 0zm3.74 6.4c-0.08,0.1 -0.12,0.2 -0.12,0.3 0,0.12 0.06,0.25 0.18,0.37 0.12,0.12 0.23,0.17 0.34,0.17 0.12,0 0.23,-0.06 0.33,-0.17 0.12,-0.12 0.17,-0.23 0.17,-0.34 0,-0.1 -0.06,-0.21 -0.17,-0.33 -0.1,-0.13 -0.21,-0.19 -0.34,-0.19 -0.12,0 -0.25,0.06 -0.39,0.19zm3.29 -1.64c0,-0.64 0.1,-1.17 0.29,-1.59 0.19,-0.42 0.48,-0.73 0.85,-0.94 0.37,-0.2 0.82,-0.31 1.35,-0.31 0.17,0 0.35,0.01 0.53,0.03 0.18,0.02 0.37,0.04 0.55,0.06 0.18,0.02 0.35,0.06 0.49,0.11l-0.12 0.7c-0.14,-0.03 -0.29,-0.06 -0.46,-0.09 -0.16,-0.02 -0.32,-0.04 -0.48,-0.06 -0.16,-0.02 -0.31,-0.03 -0.45,-0.03 -0.37,0 -0.68,0.08 -0.93,0.24 -0.25,0.16 -0.44,0.39 -0.58,0.7 -0.13,0.31 -0.2,0.7 -0.2,1.19 0,0.44 0.07,0.81 0.2,1.09 0.13,0.29 0.33,0.5 0.58,0.64 0.26,0.14 0.57,0.21 0.94,0.21 0.15,0 0.31,-0.01 0.47,-0.02 0.16,-0.01 0.33,-0.03 0.5,-0.06 0.17,-0.03 0.33,-0.06 0.48,-0.09l0.13 0.67c-0.24,0.06 -0.52,0.11 -0.84,0.16 -0.32,0.04 -0.63,0.07 -0.92,0.07 -0.79,0 -1.39,-0.22 -1.79,-0.65 -0.41,-0.44 -0.61,-1.11 -0.61,-2.02zm6.37 -0.09c0,-0.47 0.04,-0.88 0.12,-1.22 0.08,-0.34 0.21,-0.63 0.39,-0.85 0.18,-0.22 0.42,-0.39 0.72,-0.5 0.3,-0.11 0.66,-0.17 1.1,-0.17 0.44,0 0.8,0.06 1.1,0.17 0.3,0.11 0.54,0.28 0.72,0.5 0.18,0.22 0.31,0.5 0.39,0.85 0.08,0.34 0.12,0.75 0.12,1.22 0,0.48 -0.04,0.9 -0.13,1.25 -0.09,0.35 -0.22,0.64 -0.41,0.86 -0.19,0.22 -0.43,0.39 -0.72,0.5 -0.29,0.11 -0.65,0.16 -1.07,0.16 -0.42,0 -0.77,-0.05 -1.06,-0.16 -0.29,-0.11 -0.53,-0.27 -0.72,-0.5 -0.19,-0.22 -0.32,-0.51 -0.41,-0.86 -0.09,-0.35 -0.13,-0.77 -0.13,-1.25zm0.84 0c0,0.52 0.05,0.94 0.16,1.25 0.11,0.31 0.27,0.53 0.49,0.67 0.22,0.14 0.5,0.2 0.84,0.2 0.35,0 0.63,-0.07 0.85,-0.2 0.22,-0.14 0.38,-0.36 0.48,-0.67 0.1,-0.31 0.15,-0.73 0.15,-1.25 0,-0.51 -0.05,-0.92 -0.14,-1.23 -0.09,-0.31 -0.25,-0.53 -0.47,-0.66 -0.22,-0.13 -0.51,-0.2 -0.88,-0.2 -0.36,0 -0.65,0.07 -0.87,0.2 -0.22,0.13 -0.37,0.35 -0.47,0.66 -0.1,0.31 -0.14,0.72 -0.14,1.23zm6.46 2.67l0 -5.32 0.76 0 0 0.47c0.18,-0.12 0.37,-0.22 0.56,-0.3 0.19,-0.08 0.38,-0.14 0.57,-0.19 0.19,-0.05 0.4,-0.07 0.61,-0.07 0.2,0 0.37,0.03 0.52,0.08 0.15,0.05 0.28,0.12 0.38,0.21 0.11,0.09 0.19,0.2 0.25,0.33 0.18,-0.12 0.36,-0.22 0.55,-0.31 0.19,-0.09 0.39,-0.16 0.61,-0.22 0.22,-0.06 0.46,-0.09 0.72,-0.09 0.2,0 0.37,0.03 0.53,0.08 0.15,0.05 0.28,0.12 0.39,0.21 0.11,0.09 0.19,0.2 0.27,0.32 0.07,0.12 0.12,0.26 0.15,0.4 0.03,0.15 0.05,0.29 0.05,0.44l0 3.96 -0.84 0 0 -3.73c0,-0.11 -0.01,-0.22 -0.04,-0.34 -0.03,-0.12 -0.07,-0.22 -0.13,-0.32 -0.06,-0.1 -0.15,-0.17 -0.27,-0.23 -0.12,-0.06 -0.27,-0.09 -0.46,-0.09 -0.18,0 -0.35,0.02 -0.52,0.07 -0.17,0.04 -0.32,0.1 -0.47,0.16 -0.14,0.06 -0.27,0.13 -0.39,0.21 0.03,0.08 0.05,0.17 0.06,0.25 0.01,0.09 0.02,0.17 0.02,0.24l0 3.77 -0.83 0 0 -3.71c0,-0.12 -0.01,-0.23 -0.04,-0.35 -0.03,-0.12 -0.07,-0.22 -0.14,-0.31 -0.06,-0.09 -0.15,-0.17 -0.27,-0.23 -0.12,-0.06 -0.27,-0.09 -0.45,-0.09 -0.16,0 -0.31,0.02 -0.46,0.06 -0.15,0.04 -0.29,0.09 -0.43,0.15 -0.14,0.06 -0.29,0.14 -0.43,0.22l0 4.26 -0.83 0z"/>
   </g>
  </g>
 </g>
</svg>
